<?xml version="1.0" encoding="utf-8"?>
<!-- Generator: Adobe Illustrator 19.2.0, SVG Export Plug-In . SVG Version: 6.00 Build 0)  -->
<!DOCTYPE svg PUBLIC "-//W3C//DTD SVG 1.1//EN" "http://www.w3.org/Graphics/SVG/1.1/DTD/svg11.dtd">
<svg version="1.1" id="Ebene_1" xmlns="http://www.w3.org/2000/svg" xmlns:xlink="http://www.w3.org/1999/xlink" x="0px" y="0px"
	 viewBox="0 0 371.9 59.2" style="enable-background:new 0 0 371.9 59.2;" xml:space="preserve">
<style type="text/css">
	.st0{fill:#5D5D5F;}
	.st1{fill:#F9B033;}
</style>
<g>
	<path class="st0" d="M0,43.9v-0.1c0-8.5,6.5-15.4,15.5-15.4c5.6,0,9.1,1.9,11.8,5l-5.1,5.5c-1.9-2-3.8-3.3-6.7-3.3
		c-4.2,0-7.2,3.7-7.2,8.1v0.1c0,4.5,2.9,8.2,7.5,8.2c2.8,0,4.8-1.2,6.8-3.2l4.9,5c-2.9,3.2-6.2,5.4-12.1,5.4C6.5,59.2,0,52.3,0,43.9
		z"/>
	<path class="st0" d="M32.3,28.9h8.4v6c1.7-4.1,4.5-6.7,9.5-6.5v8.8h-0.4c-5.6,0-9,3.4-9,10.5v11h-8.4V28.9z"/>
	<path class="st0" d="M52,43.9v-0.1c0-8.5,6.9-15.4,16.1-15.4c9.2,0,16,6.8,16,15.3v0.1c0,8.5-6.9,15.4-16.1,15.4
		C58.8,59.2,52,52.4,52,43.9z M75.7,43.9v-0.1c0-4.4-3.2-8.2-7.8-8.2c-4.8,0-7.7,3.7-7.7,8.1v0.1c0,4.4,3.2,8.2,7.8,8.2
		C72.9,51.9,75.7,48.2,75.7,43.9z"/>
	<path class="st0" d="M84.7,54.6l3.6-5.5c3.2,2.3,6.6,3.5,9.3,3.5c2.4,0,3.5-0.9,3.5-2.2v-0.1c0-1.8-2.9-2.4-6.1-3.4
		c-4.1-1.2-8.9-3.2-8.9-8.9v-0.1c0-6,4.9-9.4,10.8-9.4c3.8,0,7.9,1.3,11.1,3.4l-3.2,5.8c-2.9-1.7-5.9-2.8-8-2.8c-2,0-3.1,0.9-3.1,2
		v0.1c0,1.7,2.8,2.4,6,3.5c4.1,1.4,9,3.4,9,8.8v0.1c0,6.6-4.9,9.6-11.3,9.6C93.3,59.1,88.6,57.7,84.7,54.6z"/>
	<path class="st0" d="M110.8,54.6l3.6-5.5c3.2,2.3,6.6,3.5,9.3,3.5c2.4,0,3.5-0.9,3.5-2.2v-0.1c0-1.8-2.9-2.4-6.1-3.4
		c-4.1-1.2-8.9-3.2-8.9-8.9v-0.1c0-6,4.9-9.4,10.8-9.4c3.8,0,7.9,1.3,11.1,3.4l-3.2,5.8c-2.9-1.7-5.9-2.8-8-2.8c-2,0-3.1,0.9-3.1,2
		v0.1c0,1.7,2.8,2.4,6,3.5c4.1,1.4,9,3.4,9,8.8v0.1c0,6.6-4.9,9.6-11.3,9.6C119.4,59.1,114.7,57.7,110.8,54.6z"/>
	<path class="st0" d="M147.3,54.7v3.9h-8.4V18.2h8.4v15c2-2.8,4.9-4.8,9.2-4.8c6.9,0,13.5,5.4,13.5,15.3v0.1
		c0,9.9-6.5,15.3-13.5,15.3C152.1,59.1,149.3,57,147.3,54.7z M161.7,43.8v-0.1c0-4.9-3.3-8.2-7.2-8.2s-7.2,3.3-7.2,8.2v0.1
		c0,4.9,3.3,8.2,7.2,8.2S161.7,48.7,161.7,43.8z"/>
	<path class="st0" d="M173.4,48.1V28.9h8.4v16.5c0,4,1.9,6,5.1,6c3.2,0,5.3-2,5.3-6V28.9h8.4v29.6h-8.4v-4.2
		c-1.9,2.5-4.4,4.8-8.7,4.8C177.1,59.1,173.4,54.9,173.4,48.1z"/>
	<path class="st0" d="M206.7,18.2h8.9v7.5h-8.9V18.2z M206.9,28.9h8.4v29.6h-8.4V28.9z"/>
	<path class="st0" d="M221.7,18.2h8.4v40.4h-8.4V18.2z"/>
	<path class="st0" d="M234,43.8v-0.1c0-9.9,6.5-15.3,13.5-15.3c4.5,0,7.2,2,9.2,4.4V18.2h8.4v40.4h-8.4v-4.3c-2,2.8-4.9,4.8-9.2,4.8
		C240.5,59.1,234,53.7,234,43.8z M256.8,43.8v-0.1c0-4.9-3.3-8.2-7.2-8.2s-7.2,3.2-7.2,8.2v0.1c0,4.9,3.3,8.2,7.2,8.2
		S256.8,48.7,256.8,43.8z"/>
	<path class="st0" d="M268.6,43.9v-0.1c0-8.5,6-15.4,14.7-15.4c9.9,0,14.4,7.7,14.4,16.1c0,0.7-0.1,1.4-0.1,2.2H277
		c0.8,3.8,3.5,5.8,7.2,5.8c2.8,0,4.9-0.9,7.2-3l4.8,4.3c-2.8,3.4-6.7,5.5-12.1,5.5C275.2,59.2,268.6,52.9,268.6,43.9z M289.5,41.4
		c-0.5-3.8-2.7-6.3-6.2-6.3c-3.5,0-5.8,2.5-6.4,6.3H289.5z"/>
	<path class="st0" d="M301.2,28.9h8.4v6c1.7-4.1,4.5-6.7,9.5-6.5v8.8h-0.4c-5.6,0-9,3.4-9,10.5v11h-8.4V28.9z"/>
	<path class="st0" d="M320.3,54.6l3.6-5.5c3.2,2.3,6.6,3.5,9.3,3.5c2.4,0,3.5-0.9,3.5-2.2v-0.1c0-1.8-2.9-2.4-6.1-3.4
		c-4.1-1.2-8.8-3.2-8.8-8.9v-0.1c0-6,4.9-9.4,10.8-9.4c3.8,0,7.9,1.3,11.1,3.4l-3.2,5.8c-2.9-1.7-5.9-2.8-8-2.8c-2,0-3.1,0.9-3.1,2
		v0.1c0,1.7,2.8,2.4,6,3.5c4.1,1.4,9,3.4,9,8.8v0.1c0,6.6-4.9,9.6-11.3,9.6C328.8,59.1,324.2,57.7,320.3,54.6z"/>
</g>
<g>
	<path class="st1" d="M357.7,20.3l-8,8l-6.1-6.1l8-8l-7.9-7.9L350,0l7.9,7.9l8-8l6.1,6.1l-8,8l7.9,7.9l-6.2,6.2L357.7,20.3z"/>
</g>
</svg>
